<svg xmlns="http://www.w3.org/2000/svg" viewBox="0 0 32 32" role="img" aria-label="AutoDevis Expert"><rect width="32" height="32" rx="8" fill="#1E3A8A"/><path fill="#fff" d="M20.6 6.2a4.4 4.4 0 0 0-5.7.4l-1.1 1.1 2.3 2.3-.9.9-2.3-2.3-5.4 5.4a1.2 1.2 0 0 0 0 1.7l1.1 1.1c.5.5 1.2.5 1.7 0l5.4-5.4 2.3 2.3.9-.9-2.3-2.3 1.1-1.1a4.4 4.4 0 0 0 .4-5.7l-1.5 1.5a1.6 1.6 0 1 1-2.3-2.3l1.5-1.5a4.4 4.4 0 0 1 5.7.4zM9.1 20.4l-2.3 2.3a1.2 1.2 0 0 0 0 1.7l1.1 1.1c.5.5 1.2.5 1.7 0l2.3-2.3-2.8-2.8z"/><circle cx="24.5" cy="8.5" r="3" fill="#16a34a"/></svg>
